<svg width="77" height="71" viewBox="0 0 77 71" fill="none" xmlns="http://www.w3.org/2000/svg">
<path d="M38.0896 1.94055L50.9145 21.27L73.261 27.4941L58.8407 45.6644L65.2909 68.4844L38.0896 57.7403L12.7566 67.2286L17.3385 45.6644L2.91821 27.4941L25.2647 21.27L38.0896 1.94055Z" fill="#D9D9D9"/>
<path d="M14.8345 44.2413H20.1538V49.5607H14.8345V44.2413Z" fill="black"/>
<path d="M13.9214 49.5607H19.4491V54.88H13.9214V49.5607Z" fill="black"/>
<path d="M61.4476 44.2413H56.1283V49.5607H61.4476V44.2413Z" fill="black"/>
<path d="M62.3607 49.5607H56.833V54.88H62.3607V49.5607Z" fill="black"/>
<path d="M64.1088 54.88H58.581V60.1993H64.1088V54.88Z" fill="black"/>
<path d="M12.0706 54.88H17.5983V60.1993H12.0706V54.88Z" fill="black"/>
<path d="M64.1187 65.077H58.5909V70.3964H64.1187V65.077Z" fill="black"/>
<path d="M12.2677 65.077H17.7954V70.3964H12.2677V65.077Z" fill="black"/>
<path d="M66.9868 60.199H61.4591V65.5183H66.9868V60.199Z" fill="black"/>
<path d="M9.39954 60.199H14.9273V65.5183H9.39954V60.199Z" fill="black"/>
<path d="M69.6465 65.5183H64.1188V70.8376H69.6465V65.5183Z" fill="black"/>
<path d="M6.73987 65.5183H12.2676V70.8376H6.73987V65.5183Z" fill="black"/>
<path d="M12.0604 65.077H17.5882V70.3964H12.0604V65.077Z" fill="black"/>
<path d="M58.6838 63.5251H53.1561V68.8445H58.6838V63.5251Z" fill="black"/>
<path d="M17.4952 63.5251H23.023V68.8445H17.4952V63.5251Z" fill="black"/>
<path d="M53.7937 59.7577H48.266V65.077H53.7937V59.7577Z" fill="black"/>
<path d="M22.3854 59.7577H27.9131V65.077H22.3854V59.7577Z" fill="black"/>
<path d="M48.3701 58.7112H42.8424V64.0305H48.3701V58.7112Z" fill="black"/>
<path d="M27.809 58.7112H33.3367V64.0305H27.809V58.7112Z" fill="black"/>
<path d="M45.2271 56.4089H39.6993V61.7283H45.2271V56.4089Z" fill="black"/>
<path d="M30.952 56.4089H36.4798V61.7283H30.952V56.4089Z" fill="black"/>
<path d="M40.8534 54.4384H35.3257V59.7577H40.8534V54.4384Z" fill="black"/>
<path d="M11.4124 38.922H16.7317V44.2413H11.4124V38.922Z" fill="black"/>
<path d="M64.8698 38.922H59.5504V44.2413H64.8698V38.922Z" fill="black"/>
<path d="M6.73987 33.6027H12.0592V38.922H6.73987V33.6027Z" fill="black"/>
<path d="M69.5422 33.6027H64.2229V38.922H69.5422V33.6027Z" fill="black"/>
<path d="M2.65967 28.2833H7.979V33.6027H2.65967V28.2833Z" fill="black"/>
<path d="M73.6224 28.2833H68.3031V33.6027H73.6224V28.2833Z" fill="black"/>
<path d="M0 25.6237H5.31934V30.943H0V25.6237Z" fill="black"/>
<path d="M76.2821 25.6237H70.9628V30.943H76.2821V25.6237Z" fill="black"/>
<path d="M5.31934 23.8618H10.6387V29.1812H5.31934V23.8618Z" fill="black"/>
<path d="M70.9628 23.8618H65.6434V29.1812H70.9628V23.8618Z" fill="black"/>
<path d="M10.6387 22.5457H15.958V27.865H10.6387V22.5457Z" fill="black"/>
<path d="M65.6434 22.5457H60.3241V27.865H65.6434V22.5457Z" fill="black"/>
<path d="M15.958 20.7142H21.2773V26.0336H15.958V20.7142Z" fill="black"/>
<path d="M60.3241 20.7142H55.0048V26.0336H60.3241V20.7142Z" fill="black"/>
<path d="M22.5927 18.5425H27.912V23.8618H22.5927V18.5425Z" fill="black"/>
<path d="M53.6895 18.5425H48.3701V23.8618H53.6895V18.5425Z" fill="black"/>
<path d="M49.9382 14.0016H44.6189V19.3209H49.9382V14.0016Z" fill="black"/>
<path d="M47.6349 9.85559H42.3156V15.1749H47.6349V9.85559Z" fill="black"/>
<path d="M44.9752 4.53625H39.6559V9.85559H44.9752V4.53625Z" fill="black"/>
<path d="M26.3439 14.0016H31.6632V19.3209H26.3439V14.0016Z" fill="black"/>
<path d="M28.6472 9.85559H33.9666V15.1749H28.6472V9.85559Z" fill="black"/>
<path d="M31.3069 4.53625H36.6262V9.85559H31.3069V4.53625Z" fill="black"/>
<path d="M40.7493 0H35.4299V5.31934H40.7493V0Z" fill="black"/>
<path d="M17.2733 20.7142H22.5927V26.0336H17.2733V20.7142Z" fill="black"/>
<path d="M59.0088 20.7142H53.6895V26.0336H59.0088V20.7142Z" fill="black"/>
</svg>
