<svg xmlns="http://www.w3.org/2000/svg" width="94" height="126" viewBox="0 0 94 126" fill="none">
  <defs>
    <linearGradient id="rackLeftWood" x1="12" y1="20" x2="88" y2="120" gradientUnits="userSpaceOnUse">
      <stop stop-color="#7D532D"/>
      <stop offset="0.44" stop-color="#A06B3A"/>
      <stop offset="1" stop-color="#4E311B"/>
    </linearGradient>
    <linearGradient id="rackLeftHighlight" x1="23" y1="0" x2="23" y2="126" gradientUnits="userSpaceOnUse">
      <stop stop-color="#F3D7AB" stop-opacity="0.78"/>
      <stop offset="1" stop-color="#F3D7AB" stop-opacity="0"/>
    </linearGradient>
  </defs>
  <path d="M12 25C12 13.402 21.402 4 33 4H86V112H22C16.477 112 12 107.523 12 102V25Z" fill="url(#rackLeftWood)"/>
  <path d="M28 17H86V104H28C24.134 104 21 100.866 21 97V24C21 20.134 24.134 17 28 17Z" fill="rgba(0,0,0,0.08)"/>
  <path d="M18 16C18 9.373 23.373 4 30 4H37V112H28C22.477 112 18 107.523 18 102V16Z" fill="url(#rackLeftHighlight)" opacity="0.48"/>
  <path d="M20 18C20 12.477 24.477 8 30 8H86V18H20Z" fill="rgba(255,255,255,0.14)"/>
  <path d="M20 88H86" stroke="rgba(64,35,14,0.42)" stroke-width="2"/>
  <path d="M20 64H86" stroke="rgba(64,35,14,0.24)" stroke-width="2"/>
  <path d="M20 40H86" stroke="rgba(64,35,14,0.18)" stroke-width="2"/>
</svg>
